<svg width="180" height="40" viewBox="0 0 180 40" fill="none" xmlns="http://www.w3.org/2000/svg">
<path d="M51.2324 33.5341V12.7672H59.2227C60.7864 12.7672 62.2322 13.0298 63.5601 13.5527C64.8858 14.0779 66.0438 14.8136 67.0341 15.762C68.0243 16.7105 68.8016 17.8197 69.3659 19.0851C69.9301 20.3505 70.2134 21.7155 70.2134 23.1801C70.2134 24.6447 69.9369 26.0278 69.3818 27.2751C68.8266 28.5201 68.0493 29.6134 67.0499 30.5529C66.0506 31.4923 64.8858 32.2234 63.5601 32.7486C62.2344 33.2738 60.7886 33.5341 59.2227 33.5341H51.2324ZM55.538 29.7062H59.1616C60.0929 29.7062 60.9586 29.5433 61.7608 29.2173C62.563 28.8913 63.2655 28.4318 63.8706 27.8387C64.4733 27.2456 64.9402 26.553 65.2665 25.7629C65.5928 24.9729 65.756 24.1127 65.756 23.1824C65.756 22.252 65.5883 21.3873 65.2506 20.5859C64.913 19.7846 64.4484 19.0874 63.8547 18.4943C63.261 17.9012 62.563 17.4372 61.7608 17.0999C60.9586 16.7649 60.0929 16.5951 59.1616 16.5951H55.538V29.7085V29.7062Z" fill="#0C1F66"/>
<path d="M80.0621 33.8306C78.5189 33.8306 77.1161 33.4752 75.8584 32.7621C74.6007 32.0491 73.6059 31.0915 72.874 29.885C72.142 28.6785 71.7749 27.3248 71.7749 25.8194C71.7749 24.3141 72.1261 22.9627 72.8286 21.7539C73.5311 20.5474 74.4874 19.5876 75.6953 18.8768C76.9031 18.1637 78.2492 17.8083 79.7358 17.8083C81.2223 17.8083 82.5367 18.175 83.6856 18.9062C84.8345 19.6374 85.7387 20.6266 86.4027 21.8739C87.0667 23.1189 87.3975 24.5337 87.3975 26.116V27.1844H75.9332C76.1122 27.7979 76.4023 28.3525 76.8102 28.846C77.2158 29.3417 77.7212 29.7265 78.324 30.0027C78.9268 30.2789 79.5771 30.4192 80.2683 30.4192C80.9595 30.4192 81.6008 30.3106 82.1832 30.0933C82.7678 29.8759 83.2664 29.5703 83.6833 29.1742L86.3551 31.6076C85.4056 32.3796 84.4289 32.9432 83.4295 33.2986C82.4302 33.654 81.3062 33.8328 80.0576 33.8328L80.0621 33.8306ZM75.8743 24.2779H83.3887C83.2505 23.6644 82.9967 23.1257 82.6319 22.6616C82.2648 22.1976 81.8297 21.8309 81.3243 21.5637C80.819 21.2966 80.2592 21.1631 79.6451 21.1631C79.031 21.1631 78.4373 21.2921 77.9229 21.5479C77.4085 21.806 76.9779 22.1659 76.6312 22.6299C76.2845 23.094 76.0329 23.6441 75.8743 24.2756V24.2779Z" fill="#0C1F66"/>
<path d="M93.6566 33.5341L87.0327 18.0778H91.4584L95.7051 28.3729L99.9224 18.0778H104.26L97.6064 33.5341H93.6566Z" fill="#0C1F66"/>
<path d="M116.465 33.8304C114.922 33.8304 113.476 33.5587 112.13 33.0154C110.784 32.4722 109.61 31.7161 108.61 30.745C107.611 29.7761 106.829 28.6443 106.265 27.3472C105.701 26.0524 105.417 24.6535 105.417 23.1481C105.417 21.6428 105.701 20.2167 106.265 18.9196C106.829 17.6248 107.616 16.4929 108.626 15.5218C109.637 14.553 110.809 13.7969 112.146 13.2514C113.483 12.7081 114.924 12.4364 116.467 12.4364C117.616 12.4364 118.724 12.5949 119.794 12.9118C120.863 13.2287 121.858 13.6724 122.778 14.2474C123.698 14.8201 124.487 15.5128 125.139 16.3232L122.23 19.2003C121.477 18.2699 120.612 17.5682 119.631 17.0928C118.649 16.6174 117.596 16.3797 116.467 16.3797C115.536 16.3797 114.666 16.554 113.854 16.8981C113.043 17.2445 112.34 17.7198 111.747 18.322C111.153 18.9264 110.686 19.6372 110.351 20.4589C110.013 21.2806 109.845 22.1747 109.845 23.1436C109.845 24.1124 110.013 24.9794 110.351 25.7989C110.686 26.6206 111.162 27.3314 111.776 27.9358C112.39 28.5402 113.109 29.0088 113.929 29.346C114.749 29.6833 115.647 29.8508 116.617 29.8508C117.704 29.8508 118.726 29.6245 119.676 29.1695C120.625 28.7145 121.468 28.0625 122.2 27.2114L125.022 30.0002C124.369 30.7925 123.585 31.4739 122.676 32.0466C121.765 32.6193 120.779 33.0607 119.721 33.3663C118.663 33.6719 117.577 33.8258 116.469 33.8258L116.465 33.8304Z" fill="#0C1F66"/>
<path d="M128.97 39.9134C128.614 39.9134 128.272 39.8976 127.945 39.8681C127.619 39.8387 127.347 39.8047 127.127 39.764V36.2621C127.524 36.3413 127.997 36.3798 128.553 36.3798C130.037 36.3798 131.068 35.6781 131.641 34.2723L131.879 33.6793L125.849 18.0735H130.334L134.195 28.6064L138.562 18.0735H142.958L135.829 34.7771C135.294 36.0222 134.71 37.0227 134.077 37.7742C133.443 38.5258 132.715 39.069 131.895 39.4063C131.073 39.7414 130.098 39.9111 128.97 39.9111V39.9134Z" fill="#0C1F66"/>
<path d="M150.747 33.8306C149.222 33.8306 147.846 33.4797 146.618 32.778C145.39 32.0763 144.42 31.1165 143.708 29.9009C142.994 28.6853 142.639 27.3248 142.639 25.8217C142.639 24.3187 142.994 22.9333 143.708 21.7268C144.422 20.5202 145.392 19.5604 146.618 18.8496C147.846 18.1366 149.222 17.7812 150.747 17.7812C151.975 17.7812 153.147 18.0189 154.266 18.4942C155.386 18.9696 156.349 19.651 157.162 20.5406L154.667 23.18C154.092 22.5462 153.493 22.0776 152.87 21.7698C152.247 21.4642 151.567 21.3102 150.835 21.3102C150.042 21.3102 149.335 21.5072 148.712 21.9033C148.089 22.2995 147.592 22.8337 147.228 23.506C146.86 24.1783 146.679 24.9502 146.679 25.8195C146.679 26.6887 146.863 27.4063 147.228 28.0899C147.595 28.7713 148.105 29.3055 148.757 29.6926C149.41 30.0797 150.133 30.2721 150.926 30.2721C151.619 30.2721 152.267 30.1295 152.872 29.842C153.475 29.5545 154.055 29.1244 154.611 28.5517L157.047 31.1029C156.253 31.954 155.304 32.6218 154.196 33.1062C153.088 33.5907 151.939 33.8329 150.751 33.8329L150.747 33.8306Z" fill="#0C1F66"/>
<path d="M158.735 33.5341V12.7672L162.805 12.0859V33.5364H158.735V33.5341Z" fill="#0C1F66"/>
<path d="M172.665 33.8308C171.121 33.8308 169.719 33.4754 168.461 32.7623C167.203 32.0493 166.208 31.0917 165.477 29.8852C164.745 28.6787 164.377 27.325 164.377 25.8197C164.377 24.3143 164.729 22.9629 165.431 21.7541C166.134 20.5476 167.09 19.5878 168.298 18.877C169.506 18.1639 170.852 17.8085 172.338 17.8085C173.825 17.8085 175.139 18.1752 176.288 18.9064C177.437 19.6376 178.341 20.6268 179.005 21.8741C179.669 23.1191 180 24.5339 180 26.1162V27.1847H168.536C168.715 27.7981 169.005 28.3527 169.413 28.8462C169.818 29.3419 170.324 29.7268 170.927 30.0029C171.529 30.2791 172.18 30.4194 172.871 30.4194C173.562 30.4194 174.203 30.3108 174.786 30.0935C175.37 29.8762 175.869 29.5706 176.286 29.1744L178.958 31.6079C178.008 32.3798 177.031 32.9434 176.032 33.2988C175.033 33.6542 173.909 33.8331 172.66 33.8331L172.665 33.8308ZM168.477 24.2781H175.991C175.853 23.6646 175.599 23.1259 175.234 22.6618C174.867 22.1978 174.432 21.8311 173.927 21.564C173.422 21.2968 172.862 21.1633 172.248 21.1633C171.634 21.1633 171.04 21.2923 170.525 21.5481C170.011 21.8062 169.58 22.1661 169.234 22.6301C168.887 23.0942 168.635 23.6443 168.477 24.2758V24.2781Z" fill="#0C1F66"/>
<path d="M31.2837 9.50062H23.8667V8.07451C25.4915 7.50859 26.6586 5.9693 26.6586 4.15383C26.6586 1.85847 24.7958 0 22.5003 0C20.2047 0 18.3419 1.86074 18.3419 4.15383C18.3419 5.9693 19.509 7.50859 21.1338 8.07451V9.50062H13.7168C6.1525 9.50062 0 15.6465 0 23.2026C0 30.7587 6.1525 36.9046 13.7168 36.9046H31.2837C38.8458 36.9046 45.0005 30.7587 45.0005 23.2026C45.0005 15.6465 38.848 9.50062 31.2837 9.50062ZM22.5003 2.72999C23.2866 2.72999 23.9257 3.36834 23.9257 4.15383C23.9257 4.93933 23.2866 5.57768 22.5003 5.57768C21.7139 5.57768 21.0749 4.93933 21.0749 4.15383C21.0749 3.36834 21.7139 2.72999 22.5003 2.72999ZM31.2837 34.1724H13.7168C7.66174 34.1724 2.7352 29.2511 2.7352 23.2026C2.7352 17.1541 7.66174 12.2329 13.7168 12.2329H31.2837C37.3388 12.2329 42.2653 17.1541 42.2653 23.2026C42.2653 29.2511 37.3388 34.1724 31.2837 34.1724Z" fill="#1D49F4"/>
<path d="M12.8103 15.9992C9.06443 15.9992 6.02783 19.0325 6.02783 22.7743C6.02783 26.5162 9.06443 29.5495 12.8103 29.5495C16.5562 29.5495 19.5928 26.5162 19.5928 22.7743C19.5928 19.0325 16.5562 15.9992 12.8103 15.9992ZM12.8103 26.8172C10.5782 26.8172 8.76303 25.004 8.76303 22.7743C8.76303 20.5446 10.5782 18.7314 12.8103 18.7314C15.0424 18.7314 16.8576 20.5446 16.8576 22.7743C16.8576 25.004 15.0424 26.8172 12.8103 26.8172Z" fill="#1D49F4"/>
<path d="M32.1907 15.9994C28.4448 15.9994 25.4082 19.0327 25.4082 22.7746C25.4082 26.5164 28.4448 29.5497 32.1907 29.5497C35.9366 29.5497 38.9732 26.5164 38.9732 22.7746C38.9732 19.0327 35.9366 15.9994 32.1907 15.9994ZM32.1907 26.8175C29.9586 26.8175 28.1434 25.0043 28.1434 22.7746C28.1434 20.5449 29.9586 18.7317 32.1907 18.7317C34.4228 18.7317 36.238 20.5449 36.238 22.7746C36.238 25.0043 34.4228 26.8175 32.1907 26.8175Z" fill="#1D49F4"/>
<path d="M24.5399 29.5793C24.064 30.0185 23.3706 30.2426 22.4777 30.2426C21.5849 30.2426 20.9164 30.0275 20.4405 29.6042C19.8785 29.1017 19.0129 29.1515 18.512 29.7152C18.009 30.2788 18.0588 31.1413 18.6231 31.6415C19.3052 32.2482 20.5266 32.9726 22.4777 32.9726C24.4289 32.9726 25.7092 32.2188 26.3959 31.5849C26.9511 31.0734 26.9851 30.2086 26.4706 29.6563C25.9562 29.104 25.0928 29.07 24.5399 29.5816V29.5793Z" fill="#1D49F4"/>
</svg>
