<?xml version="1.0" encoding="utf-8"?>
<!-- Generator: Adobe Illustrator 25.4.1, SVG Export Plug-In . SVG Version: 6.00 Build 0)  -->
<svg version="1.1" id="Layer_1" xmlns="http://www.w3.org/2000/svg" xmlns:xlink="http://www.w3.org/1999/xlink" x="0px" y="0px"
	 viewBox="0 0 32 32" style="enable-background:new 0 0 32 32;" xml:space="preserve">
<style type="text/css">
	.st0 {
		fill: #1D4ED8;
	}
	@media (prefers-color-scheme: dark) {
		.st0 {
			fill: #fff;
		}
	}
</style>
<path class="st0" d="M16,31c-1.8,0-3.5-1-4.3-2.7c-0.1-0.2,0-0.5,0.2-0.6h0l0.9-0.4c0.2-0.1,0.4,0,0.5,0.2c0.8,1.5,2.6,2.1,4.1,1.2
	c0.5-0.3,1-0.7,1.2-1.2c0.1-0.2,0.3-0.3,0.5-0.2l0.9,0.4c0.2,0.1,0.3,0.3,0.2,0.5v0C19.5,30,17.8,31,16,31z M21.7,8.2h-4.8V5.5
	c1.5-0.5,2.2-2.1,1.8-3.6c-0.5-1.5-2.1-2.3-3.6-1.8c-1.5,0.5-2.2,2.1-1.8,3.6c0.3,0.8,0.9,1.5,1.8,1.8v2.7h-4.8C5.7,8.3,2,12,2,16.6
	S5.7,25,10.3,25h11.4c4.6,0,8.3-3.8,8.3-8.4C30,12,26.3,8.3,21.7,8.2z M16,1.8c0.6,0,1,0.5,1,1s-0.4,1-1,1c-0.6,0-1-0.5-1-1
	S15.5,1.8,16,1.8z M21.7,23.2h-6.9c-2.1,0-4.1-1.1-5.3-2.8c2,0.5,4.1-0.8,4.6-2.9c0.5-2.1-0.8-4.1-2.9-4.6c-2-0.5-4.1,0.8-4.6,2.9
	c-0.1,0.3-0.1,0.6-0.1,0.8c0,2.5,1.1,4.9,3.1,6.5c-3.6-0.3-6.2-3.6-5.8-7.2c0.3-3.3,3.1-5.9,6.4-5.9h6.9c2.1,0,4.1,1.1,5.3,2.8
	c-0.3-0.1-0.6-0.1-0.8-0.1c-2.1,0-3.8,1.7-3.8,3.8s1.7,3.8,3.8,3.8s3.8-1.7,3.8-3.8c0-2.5-1.1-5-3.1-6.5c3.6,0.4,6.2,3.6,5.8,7.2
	C27.8,20.6,25.1,23.2,21.7,23.2z M8.4,16.6c0-1.1,0.9-2,2-2c1.1,0,2,0.9,2,2s-0.9,2-2,2C9.3,18.7,8.4,17.8,8.4,16.6z M23.7,16.6
	c0,1.1-0.9,2-2,2c-1.1,0-2-0.9-2-2s0.9-2,2-2C22.8,14.6,23.7,15.5,23.7,16.6z"/>
</svg>
