<svg width="120" height="99" viewBox="0 0 120 99" fill="none" xmlns="http://www.w3.org/2000/svg">
<path d="M83.4862 25.3904H63.7179V21.5819C68.0705 20.0705 71.1536 15.9597 71.1536 11.1234C71.1536 5.01763 66.1965 0 60.0302 0C53.9244 0 48.9068 4.95718 48.9068 11.1234C48.9068 15.9597 52.0504 20.0705 56.3426 21.5819V25.3904H36.5743C16.4433 25.3904 0 41.7733 0 61.9647C0 82.1562 16.4433 98.539 36.5743 98.539H83.4257C103.617 98.539 120 82.0957 120 61.9647C120 41.8338 103.617 25.3904 83.4862 25.3904ZM60.0302 7.31487C62.1461 7.31487 63.8388 9.00755 63.8388 11.1234C63.8388 13.2393 62.1461 14.932 60.0302 14.932C57.9144 14.932 56.2217 13.2393 56.2217 11.1234C56.2217 9.00755 57.9144 7.31487 60.0302 7.31487ZM83.4862 91.2846H36.5743C20.4332 91.2846 7.25441 78.1662 7.25441 61.9647C7.25441 45.7632 20.3728 32.6448 36.5743 32.6448H83.4257C99.5667 32.6448 112.746 45.7632 112.746 61.9647C112.746 78.1662 99.6272 91.2846 83.4862 91.2846Z" fill="#1D49F4"/>
<path d="M34.1562 42.7406C24.1814 42.7406 16.0806 50.8413 16.0806 60.8161C16.0806 70.7909 24.1814 78.8917 34.1562 78.8917C44.131 78.8917 52.2318 70.7909 52.2318 60.8161C52.2922 50.8413 44.1914 42.7406 34.1562 42.7406ZM34.1562 71.6373C28.1713 71.6373 23.335 66.801 23.335 60.8161C23.335 54.8312 28.1713 49.995 34.1562 49.995C40.1411 49.995 44.9773 54.8312 44.9773 60.8161C44.9773 66.801 40.1411 71.6373 34.1562 71.6373Z" fill="#1D49F4"/>
<path d="M85.9043 46.1259C76.4736 46.1259 68.7355 54.3476 68.7355 64.4433C68.7355 66.4383 70.3678 68.0705 72.3627 68.0705C74.3577 68.0705 75.9899 66.4383 75.9899 64.4433C75.9899 58.398 80.403 53.4408 85.8438 53.4408C91.2846 53.4408 95.6978 58.398 95.6978 64.4433C95.6978 66.4383 97.33 68.0705 99.325 68.0705C101.32 68.0705 102.952 66.4383 102.952 64.4433C103.013 54.3476 95.335 46.1259 85.9043 46.1259Z" fill="#1D49F4"/>
<path d="M65.471 79.0126C64.2015 80.1612 62.3275 80.7657 59.9698 80.7657C57.6121 80.7657 55.7985 80.2217 54.529 79.073C53.0176 77.7431 50.7204 77.864 49.3904 79.3753C48.0605 80.8866 48.1814 83.1839 49.6927 84.5138C51.5063 86.1461 54.7708 88.0806 59.9698 88.0806C65.2897 88.0806 68.6146 86.0856 70.4282 84.3929C71.8791 83.0025 72 80.7053 70.6096 79.2544C69.2796 77.7431 66.9219 77.6222 65.471 79.0126Z" fill="#1D49F4"/>
</svg>
